<svg width="20" height="20" viewBox="0 0 20 20" fill="none" xmlns="http://www.w3.org/2000/svg">
<path d="M0.349609 0.700036C0.349609 0.506737 0.506309 0.350037 0.699609 0.350037H5.14961V2.15004H2.14961V5.15004H0.349609V0.700036Z" fill="#080E12"/>
<path d="M8.84961 2.15004V0.350037H11.1496V2.15004H8.84961Z" fill="#080E12"/>
<path d="M14.8496 2.15004V0.350037H19.2996C19.4929 0.350037 19.6496 0.506737 19.6496 0.700037V5.15004H17.8496V2.15004H14.8496Z" fill="#080E12"/>
<path d="M0.349609 11.15V8.85004H2.14961V11.15H0.349609Z" fill="#080E12"/>
<path d="M17.8496 11.15V8.85004H19.6496V11.15H17.8496Z" fill="#080E12"/>
<path d="M0.349609 19.3V14.85H2.14961V17.85H5.14961V19.65H0.699609C0.50631 19.65 0.349609 19.4933 0.349609 19.3Z" fill="#080E12"/>
<path d="M17.8496 17.85V14.85H19.6496V19.3C19.6496 19.4933 19.4929 19.65 19.2996 19.65H14.8496V17.85H17.8496Z" fill="#080E12"/>
<path d="M8.84961 19.65V17.85H11.1496V19.65H8.84961Z" fill="#080E12"/>
</svg>
