<svg xmlns="http://www.w3.org/2000/svg" width="53.585" height="53.585" viewBox="0 0 53.585 53.585">
  <g transform="translate(26.793 26.793)">
    <path id="Path_165" data-name="Path 165" d="M24.086,12.155A5.064,5.064,0,0,0,22.03,9.893a6.627,6.627,0,0,0-3.284-.733H14.332a1.193,1.193,0,0,0-.743.161.88.88,0,0,0-.183.657v13.7a.878.878,0,0,0,.183.658,1.194,1.194,0,0,0,.743.161h4.952a4.772,4.772,0,0,0,4.8-2.995,5.919,5.919,0,0,0,.42-1.391,10.973,10.973,0,0,0,.118-1.776V15.431a12.412,12.412,0,0,0-.118-1.939A4.915,4.915,0,0,0,24.086,12.155Zm-3.08,6.226a7.711,7.711,0,0,1-.118,1.476,2.4,2.4,0,0,1-.387.959,1.446,1.446,0,0,1-.71.517,3.413,3.413,0,0,1-1.087.151H16.938V12.176H18.7a2.061,2.061,0,0,1,1.765.722,4.063,4.063,0,0,1,.538,2.381Zm2.817,22.854H17.771l6.374-8.962a1.525,1.525,0,0,0,.194-.345.94.94,0,0,0,.043-.3V29.9a.878.878,0,0,0-.184-.657,1.2,1.2,0,0,0-.746-.161h-9.2a.843.843,0,0,0-.648.182,1.308,1.308,0,0,0-.151.766v1.292a1.3,1.3,0,0,0,.151.765.836.836,0,0,0,.648.184h5.681l-6.287,8.962a.974.974,0,0,0-.238.6v1.767a.877.877,0,0,0,.184.658,1.2,1.2,0,0,0,.746.161h9.488a.846.846,0,0,0,.649-.182,1.314,1.314,0,0,0,.151-.766V42.184a1.312,1.312,0,0,0-.151-.765A.839.839,0,0,0,23.824,41.235ZM53.585,0H0V23.7l3.1,3.1L0,29.889v23.7H53.585v-23.7l-3.1-3.1,3.1-3.1ZM46.509,27.786,50.226,31.5V50.226H3.359V31.5l3.714-3.714a1.406,1.406,0,0,0,0-1.988L3.359,22.084V3.359H50.226V22.08L46.509,25.8A1.406,1.406,0,0,0,46.509,27.786Zm-7.151,1.3H37.914a1.193,1.193,0,0,0-.743.161.881.881,0,0,0-.182.657v8.122l-4.263-8.143a1.528,1.528,0,0,0-.507-.657,1.924,1.924,0,0,0-.872-.14H30.013a1.193,1.193,0,0,0-.743.161.88.88,0,0,0-.183.657v13.7a.912.912,0,0,0,.173.658,1.141,1.141,0,0,0,.732.161h1.465a1.193,1.193,0,0,0,.742-.161.878.878,0,0,0,.183-.658V35.461l4.263,8.166a1.523,1.523,0,0,0,.506.658,1.9,1.9,0,0,0,.872.14h1.335a1.2,1.2,0,0,0,.743-.161.879.879,0,0,0,.183-.658V29.9a.881.881,0,0,0-.183-.657A1.2,1.2,0,0,0,39.357,29.084Zm2.22-5.509L37.056,9.893a1.2,1.2,0,0,0-.344-.593,1.091,1.091,0,0,0-.625-.14h-2.5a1.08,1.08,0,0,0-.635.151,1.093,1.093,0,0,0-.334.582L28.056,23.575a.734.734,0,0,0-.086.43c0,.331.2.5.6.5h1.873a3.361,3.361,0,0,0,.42-.021.47.47,0,0,0,.259-.109.733.733,0,0,0,.173-.258,4.706,4.706,0,0,0,.161-.452l.711-2.392h5.146l.731,2.348a2.869,2.869,0,0,0,.173.475.9.9,0,0,0,.194.268.475.475,0,0,0,.258.119,2.885,2.885,0,0,0,.387.021h2c.4,0,.6-.165.6-.5a1.253,1.253,0,0,0-.01-.2A1.993,1.993,0,0,0,41.578,23.575Zm-8.591-5.064,1.723-5.8,1.765,5.8Z" transform="translate(-26.793 -26.793)" fill="#f9fafa"/>
  </g>
</svg>